<svg width="13" height="12" viewBox="0 0 13 12" fill="none" xmlns="http://www.w3.org/2000/svg">
<path d="M7.38897 10.9018L6.80034 11.4772C6.5511 11.7209 6.14807 11.7209 5.90148 11.4772L0.746989 6.44063C0.497749 6.19697 0.497749 5.80296 0.746989 5.56189L5.90148 0.522714C6.15072 0.27905 6.55375 0.27905 6.80034 0.522714L7.38897 1.09818C7.64086 1.34443 7.63556 1.74622 7.37836 1.98729L4.18332 4.9631H11.8037C12.1563 4.9631 12.4401 5.24046 12.4401 5.58522V6.41471C12.4401 6.75947 12.1563 7.03683 11.8037 7.03683H4.18332L7.37836 10.0126C7.63821 10.2537 7.64351 10.6555 7.38897 10.9018Z" fill="white"/>
</svg>
