<svg width="31" height="31" viewBox="0 0 31 31" fill="none" xmlns="http://www.w3.org/2000/svg">
<path d="M8 24.25H11.75V18C11.75 17.6458 11.87 17.3492 12.11 17.11C12.35 16.8708 12.6467 16.7508 13 16.75H18C18.3542 16.75 18.6513 16.87 18.8913 17.11C19.1313 17.35 19.2508 17.6467 19.25 18V24.25H23V13L15.5 7.375L8 13V24.25ZM5.5 24.25V13C5.5 12.6042 5.58875 12.2292 5.76625 11.875C5.94375 11.5208 6.18833 11.2292 6.5 11L14 5.375C14.4375 5.04167 14.9375 4.875 15.5 4.875C16.0625 4.875 16.5625 5.04167 17 5.375L24.5 11C24.8125 11.2292 25.0575 11.5208 25.235 11.875C25.4125 12.2292 25.5008 12.6042 25.5 13V24.25C25.5 24.9375 25.255 25.5263 24.765 26.0163C24.275 26.5063 23.6867 26.7508 23 26.75H18C17.6458 26.75 17.3492 26.63 17.11 26.39C16.8708 26.15 16.7508 25.8533 16.75 25.5V19.25H14.25V25.5C14.25 25.8542 14.13 26.1512 13.89 26.3912C13.65 26.6312 13.3533 26.7508 13 26.75H8C7.3125 26.75 6.72417 26.5054 6.235 26.0163C5.74583 25.5271 5.50083 24.9383 5.5 24.25Z" fill="white"/>
</svg>
