<svg width="24" height="24" viewBox="0 0 24 24" fill="none" xmlns="http://www.w3.org/2000/svg">
<path fill-rule="evenodd" clip-rule="evenodd" d="M7.29913 11.7009C7.11166 11.5133 7.00635 11.259 7.00635 10.9939C7.00635 10.7287 7.11166 10.4744 7.29913 10.2869L11.2991 6.28687C11.4867 6.09939 11.741 5.99408 12.0061 5.99408C12.2713 5.99408 12.5256 6.09939 12.7131 6.28687L16.7131 10.2869C16.8953 10.4755 16.9961 10.7281 16.9938 10.9903C16.9915 11.2525 16.8864 11.5033 16.701 11.6887C16.5155 11.8741 16.2647 11.9793 16.0025 11.9815C15.7403 11.9838 15.4877 11.883 15.2991 11.7009L12.0061 8.40787L8.71313 11.7009C8.52561 11.8883 8.2713 11.9937 8.00613 11.9937C7.74097 11.9937 7.48666 11.8883 7.29913 11.7009Z" fill="white"/>
<path fill-rule="evenodd" clip-rule="evenodd" d="M7.29913 17.7009C7.11166 17.5133 7.00635 17.259 7.00635 16.9939C7.00635 16.7287 7.11166 16.4744 7.29913 16.2869L11.2991 12.2869C11.4867 12.0994 11.741 11.9941 12.0061 11.9941C12.2713 11.9941 12.5256 12.0994 12.7131 12.2869L16.7131 16.2869C16.8953 16.4755 16.9961 16.7281 16.9938 16.9903C16.9915 17.2525 16.8864 17.5033 16.701 17.6887C16.5155 17.8741 16.2647 17.9793 16.0025 17.9815C15.7403 17.9838 15.4877 17.883 15.2991 17.7009L12.0061 14.4079L8.71313 17.7009C8.52561 17.8883 8.2713 17.9937 8.00613 17.9937C7.74097 17.9937 7.48666 17.8883 7.29913 17.7009Z" fill="white"/>
</svg>
