<svg width="16" height="16" viewBox="0 0 16 16" fill="none" xmlns="http://www.w3.org/2000/svg">
<path fill-rule="evenodd" clip-rule="evenodd" d="M2.00008 4.75C2.00008 4.55109 2.07909 4.36032 2.21975 4.21967C2.3604 4.07902 2.55116 4 2.75008 4H13.2501C13.449 4 13.6398 4.07902 13.7804 4.21967C13.9211 4.36032 14.0001 4.55109 14.0001 4.75C14.0001 4.94891 13.9211 5.13968 13.7804 5.28033C13.6398 5.42098 13.449 5.5 13.2501 5.5H2.75008C2.55116 5.5 2.3604 5.42098 2.21975 5.28033C2.07909 5.13968 2.00008 4.94891 2.00008 4.75ZM2.00008 11.25C2.00008 11.0511 2.07909 10.8603 2.21975 10.7197C2.3604 10.579 2.55116 10.5 2.75008 10.5H8.00008H13.2501C13.449 10.5 13.6398 10.579 13.7804 10.7197C13.9211 10.8603 14.0001 11.0511 14.0001 11.25C14.0001 11.4489 13.9211 11.6397 13.7804 11.7803C13.6398 11.921 13.449 12 13.2501 12H2.75008C2.55116 12 2.3604 11.921 2.21975 11.7803C2.07909 11.6397 2.00008 11.4489 2.00008 11.25Z" fill="white"/>
</svg>
