<svg width="20" height="21" viewBox="0 0 20 21" fill="none" xmlns="http://www.w3.org/2000/svg">
<path d="M9.99984 2.16675C14.6023 2.16675 18.3332 5.89758 18.3332 10.5001C18.3332 15.1026 14.6023 18.8334 9.99984 18.8334C5.39734 18.8334 1.6665 15.1026 1.6665 10.5001C1.6665 5.89758 5.39734 2.16675 9.99984 2.16675ZM9.99984 3.83341C8.23173 3.83341 6.53604 4.53579 5.28579 5.78604C4.03555 7.03628 3.33317 8.73197 3.33317 10.5001C3.33317 12.2682 4.03555 13.9639 5.28579 15.2141C6.53604 16.4644 8.23173 17.1667 9.99984 17.1667C11.7679 17.1667 13.4636 16.4644 14.7139 15.2141C15.9641 13.9639 16.6665 12.2682 16.6665 10.5001C16.6665 8.73197 15.9641 7.03628 14.7139 5.78604C13.4636 4.53579 11.7679 3.83341 9.99984 3.83341ZM9.9915 8.83342C10.4565 8.83342 10.8332 9.21008 10.8332 9.67508V13.9451C10.992 14.0368 11.1162 14.1784 11.1864 14.3479C11.2566 14.5173 11.2689 14.7052 11.2214 14.8824C11.1739 15.0596 11.0693 15.2162 10.9238 15.3279C10.7783 15.4395 10.5999 15.5001 10.4165 15.5001H10.0082C9.89764 15.5001 9.78819 15.4783 9.68608 15.436C9.58396 15.3937 9.49118 15.3317 9.41302 15.2536C9.33487 15.1754 9.27287 15.0826 9.23057 14.9805C9.18827 14.8784 9.1665 14.7689 9.1665 14.6584V10.5001C8.94549 10.5001 8.73353 10.4123 8.57725 10.256C8.42097 10.0997 8.33317 9.88776 8.33317 9.66675C8.33317 9.44573 8.42097 9.23377 8.57725 9.07749C8.73353 8.92121 8.94549 8.83342 9.1665 8.83342H9.9915ZM9.99984 6.33342C10.2209 6.33342 10.4328 6.42121 10.5891 6.57749C10.7454 6.73377 10.8332 6.94573 10.8332 7.16675C10.8332 7.38776 10.7454 7.59972 10.5891 7.756C10.4328 7.91228 10.2209 8.00008 9.99984 8.00008C9.77882 8.00008 9.56686 7.91228 9.41058 7.756C9.2543 7.59972 9.1665 7.38776 9.1665 7.16675C9.1665 6.94573 9.2543 6.73377 9.41058 6.57749C9.56686 6.42121 9.77882 6.33342 9.99984 6.33342Z" fill="#2684FF"/>
</svg>
